<svg width="27" height="30" viewBox="0 0 27 30" fill="none" xmlns="http://www.w3.org/2000/svg">
<path d="M1 11.1828L26 11" stroke="#707C87"/>
<path d="M6 1L6.09082 4.89677" stroke="#707C87"/>
<path d="M21 1V5" stroke="#707C87"/>
<path d="M26 26V6C26 4.34315 24.6569 3 23 3H4C2.34315 3 1 4.34315 1 6V26C1 27.6569 2.34315 29 4 29H23C24.6569 29 26 27.6569 26 26Z" stroke="#707C87"/>
<path d="M5 17H8" stroke="#C1C2CA" stroke-width="3"/>
<path d="M12.0908 17H15.0908" stroke="#C1C2CA" stroke-width="3"/>
<path d="M19.1816 17H22.1816" stroke="#C1C2CA" stroke-width="3"/>
<path d="M5 23H8" stroke="#C1C2CA" stroke-width="3"/>
<path d="M12.0908 23H15.0908" stroke="#C1C2CA" stroke-width="3"/>
<path d="M19.1816 23H22.1816" stroke="#C1C2CA" stroke-width="3"/>
</svg>
